<svg xmlns="http://www.w3.org/2000/svg" viewBox="0 0 1744 1897" width="1744" height="1897" shape-rendering="geometricPrecision"><path fill="#F26903" fill-rule="evenodd" d="M675,12L654,13L98,987L383,988L645,531L666,509L678,515L948,984L972,966L1093,750L1092,734Z"/><path fill="#FFFFFF" fill-rule="evenodd" d="M1519,1742L1514,1747L1510,1757L1510,1795L1513,1804L1520,1811L1529,1815L1617,1815L1619,1817L1619,1846L1616,1848L1535,1848L1532,1845L1532,1836L1510,1836L1510,1850L1516,1863L1531,1870L1621,1870L1632,1866L1638,1860L1642,1851L1642,1811L1635,1799L1630,1795L1622,1792L1534,1792L1532,1790L1532,1762L1535,1760L1617,1760L1619,1762L1620,1772L1642,1772L1642,1756L1639,1749L1631,1741L1620,1737L1532,1737ZM1333,1737L1333,1870L1455,1870L1455,1848L1356,1847L1357,1815L1436,1815L1436,1792L1357,1792L1356,1761L1455,1760L1455,1737ZM1151,1744L1148,1747L1144,1755L1144,1760L1143,1761L1143,1846L1144,1847L1144,1852L1147,1859L1154,1866L1165,1870L1255,1870L1266,1866L1274,1857L1277,1847L1277,1761L1276,1760L1276,1755L1271,1746L1265,1741L1254,1737L1166,1737L1161,1738ZM1166,1763L1169,1760L1251,1760L1254,1763L1254,1845L1250,1848L1170,1848L1166,1845ZM960,1748L956,1759L956,1849L960,1859L965,1865L977,1870L1016,1870L1017,1871L1010,1896L1032,1896L1040,1870L1089,1870L1089,1848L985,1848L982,1847L979,1843L979,1764L982,1761L985,1760L1089,1760L1089,1738L1088,1737L979,1737L968,1741ZM767,1737L767,1850L772,1861L779,1867L789,1870L879,1870L891,1865L897,1858L900,1850L900,1737L877,1737L877,1845L874,1848L793,1848L790,1846L790,1738L789,1737ZM579,1737L578,1738L578,1870L690,1870L699,1867L703,1864L707,1859L711,1849L711,1758L707,1748L696,1739L688,1737ZM603,1760L685,1760L688,1762L688,1845L685,1848L604,1848L600,1845L600,1763ZM397,1743L393,1747L389,1755L389,1852L395,1863L403,1868L410,1870L500,1870L511,1866L517,1860L521,1851L521,1756L518,1749L510,1741L499,1737L411,1737L406,1738ZM411,1762L414,1760L496,1760L498,1762L498,1846L495,1848L414,1848L411,1845ZM201,1737L201,1870L223,1870L223,1825L224,1824L269,1824L301,1863L308,1870L333,1870L333,1864L300,1825L301,1824L314,1824L321,1821L328,1815L333,1805L333,1756L330,1749L320,1740L309,1737ZM223,1763L226,1760L308,1760L310,1762L310,1799L308,1801L225,1801L223,1799ZM18,1738L18,1869L19,1870L41,1870L41,1825L42,1824L132,1824L141,1820L149,1811L152,1802L152,1760L148,1749L138,1740L127,1737L19,1737ZM41,1763L44,1760L126,1760L128,1762L128,1799L126,1801L44,1801L41,1798ZM1177,1689L1177,1707L1192,1707L1201,1711L1210,1718L1221,1722L1243,1722L1243,1706L1242,1705L1224,1705L1218,1703L1208,1695L1198,1690L1194,1689ZM1091,1565L1076,1603L1074,1612L1120,1612L1130,1587L1137,1565ZM485,1565L469,1612L515,1612L530,1573L532,1565ZM1321,1209L1235,1447L1547,1448L1572,1462L1571,1492L1548,1524L1517,1537L1202,1538L1175,1612L1502,1612L1540,1606L1589,1584L1632,1543L1660,1488L1668,1434L1654,1400L1627,1381L1598,1374L1351,1373L1384,1282L1718,1282L1743,1209ZM1134,1236L1124,1226L1105,1216L1069,1209L826,1209L789,1215L746,1233L705,1267L683,1298L670,1327L662,1355L661,1388L665,1403L629,1437L602,1483L590,1526L590,1552L598,1576L604,1585L621,1599L643,1608L669,1612L933,1612L978,1604L1015,1587L1037,1571L1062,1545L1089,1497L1100,1451L1099,1429L1089,1403L1111,1380L1126,1357L1139,1328L1147,1300L1147,1263ZM692,1518L692,1508L698,1487L707,1471L723,1455L733,1450L745,1447L977,1447L989,1451L994,1456L998,1466L998,1475L995,1488L992,1494L992,1497L983,1513L969,1527L950,1536L943,1537L714,1537L700,1532L695,1526ZM762,1348L767,1326L779,1305L786,1298L796,1291L808,1286L818,1284L1022,1284L1031,1286L1037,1289L1045,1298L1047,1306L1043,1326L1033,1346L1018,1361L1008,1367L998,1370L992,1370L991,1371L786,1371L777,1369L769,1364L764,1357ZM147,1209L120,1283L438,1283L458,1295L460,1314L442,1353L427,1366L409,1372L140,1373L114,1446L381,1447L390,1450L400,1464L396,1493L373,1526L350,1537L27,1538L0,1612L349,1611L396,1599L441,1572L478,1528L498,1476L499,1438L479,1409L503,1396L526,1374L547,1342L561,1306L565,1267L552,1236L524,1217L484,1209ZM1123,0L1083,60L985,230L984,258L1408,990L1692,986Z"/></svg>